<svg width="33" height="32" viewBox="0 0 33 32" fill="none" xmlns="http://www.w3.org/2000/svg">
<mask id="mask0_102_4397" style="mask-type:alpha" maskUnits="userSpaceOnUse" x="0" y="0" width="33" height="32">
<rect x="0.351562" width="32" height="32" fill="#D9D9D9"/>
</mask>
<g mask="url(#mask0_102_4397)">
<path d="M14.9273 17.3559L12.6607 15.0336C12.446 14.804 12.1812 14.6893 11.8663 14.6893C11.5515 14.6893 11.2756 14.8004 11.0387 15.0226C10.8089 15.2521 10.694 15.5261 10.694 15.8446C10.694 16.1633 10.8089 16.4374 11.0387 16.6669L14.1497 19.7559C14.3719 19.9781 14.6311 20.0893 14.9273 20.0893C15.2238 20.0893 15.4831 19.9781 15.7053 19.7559L21.6607 13.8226C21.8829 13.6004 21.9922 13.3337 21.9887 13.0226C21.9849 12.7115 21.8682 12.4448 21.6387 12.2226C21.4165 12.015 21.1516 11.9131 20.844 11.9169C20.5367 11.9207 20.2793 12.0263 20.072 12.2336L14.9273 17.3559ZM11.3497 29.1336L9.32734 25.6893L5.34968 24.8669C5.07568 24.8151 4.84979 24.6688 4.67201 24.4279C4.49423 24.1873 4.42757 23.9299 4.47201 23.6559L4.90534 19.7336L2.31634 16.7336C2.12368 16.5336 2.02734 16.2891 2.02734 16.0003C2.02734 15.7114 2.12368 15.4669 2.31634 15.2669L4.90534 12.2893L4.47201 8.36692C4.42757 8.09292 4.49423 7.83548 4.67201 7.59459C4.84979 7.35392 5.07568 7.2077 5.34968 7.15592L9.32734 6.33359L11.3497 2.86692C11.4979 2.62248 11.7053 2.45392 11.972 2.36126C12.2387 2.26881 12.5053 2.28181 12.772 2.40026L16.3497 4.02259L19.9273 2.40026C20.194 2.28181 20.4607 2.26514 20.7273 2.35026C20.994 2.43537 21.2015 2.60014 21.3497 2.84459L23.394 6.33359L27.3497 7.15592C27.6237 7.2077 27.8496 7.35392 28.0273 7.59459C28.2051 7.83548 28.2718 8.09292 28.2273 8.36692L27.794 12.2893L30.383 15.2669C30.5757 15.4669 30.672 15.7114 30.672 16.0003C30.672 16.2891 30.5757 16.5336 30.383 16.7336L27.794 19.7336L28.2273 23.6559C28.2718 23.9299 28.2051 24.1873 28.0273 24.4279C27.8496 24.6688 27.6237 24.8151 27.3497 24.8669L23.394 25.6893L21.3497 29.1559C21.2015 29.4004 20.994 29.5651 20.7273 29.6503C20.4607 29.7354 20.194 29.7187 19.9273 29.6003L16.3497 27.9779L12.772 29.6003C12.5053 29.7187 12.2387 29.7317 11.972 29.6393C11.7053 29.5466 11.4979 29.378 11.3497 29.1336Z" fill="#3DCFB6"/>
</g>
</svg>
