<svg width="64" height="64" viewBox="0 0 64 64" fill="none" xmlns="http://www.w3.org/2000/svg">
<g clip-path="url(#clip0_102_3577)">
<path d="M50.5062 27.5335L32.5737 37.7481C32.2509 37.9379 31.8522 37.9379 31.5199 37.7481L13.5874 27.5335C12.8849 27.1347 12.8849 26.119 13.5874 25.7108L31.5199 15.4962C31.8427 15.3063 32.2414 15.3063 32.5737 15.4962L50.5062 25.7108C51.2087 26.1095 51.2087 27.1252 50.5062 27.5335Z" fill="#3DCFB6"/>
<path d="M47.4017 30.97V39.3904C47.4017 39.7701 47.2023 40.1119 46.8701 40.3017L32.5734 48.4468C32.2507 48.6367 31.8519 48.6367 31.5197 48.4468L17.223 40.3017C16.8908 40.1119 16.6914 39.7701 16.6914 39.3904V30.97L24.6182 35.4792L31.5197 39.4189C31.8424 39.6087 32.2412 39.6087 32.5734 39.4189L39.4749 35.4792L47.4017 30.97Z" fill="#3DCFB6"/>
<path d="M55.7566 17.072L56.2502 16.7303C56.8483 16.3126 56.7723 15.4108 56.1173 15.0975L52.1871 13.2273C51.5226 12.9141 50.7727 13.4362 50.8296 14.1671L51.2094 18.5055C51.2758 19.227 52.1017 19.6162 52.6998 19.1985L53.4023 18.7144C59.6488 28.7771 57.9685 42.1814 49.2348 50.3455C40.6435 58.3767 27.4006 59.3545 17.7461 52.6713C17.1005 52.2251 16.2082 52.3865 15.762 53.032C15.3158 53.6776 15.4772 54.5699 16.1227 55.0161C20.8978 58.3197 26.4513 59.943 31.9953 59.943C38.9347 59.943 45.8552 57.3989 51.1809 52.4245C60.9303 43.3016 62.81 28.2929 55.7566 17.072Z" fill="#3DCFB6"/>
<path d="M47.9718 8.92698C37.2256 1.48436 22.4828 2.57607 12.9137 11.5186C2.91742 20.8693 1.12322 35.8115 8.57533 47.2223L7.88233 47.6969C7.28426 48.1146 7.36021 49.0165 8.01523 49.3298L11.9454 51.1999C12.6099 51.5132 13.3599 50.9911 13.3029 50.2601L12.9232 45.9217C12.8567 45.2002 12.0308 44.811 11.4328 45.2287L10.9201 45.5895C4.29392 35.3464 5.89826 21.9705 14.8598 13.5976C23.4511 5.56641 36.694 4.57912 46.3485 11.2718C46.994 11.718 47.8864 11.5566 48.3326 10.911C48.7788 10.2655 48.6174 9.37315 47.9718 8.92698Z" fill="#3DCFB6"/>
</g>
<defs>
<clipPath id="clip0_102_3577">
<rect width="56" height="55.943" fill="white" transform="translate(4 4)"/>
</clipPath>
</defs>
</svg>
