<svg width="33" height="32" viewBox="0 0 33 32" fill="none" xmlns="http://www.w3.org/2000/svg">
<mask id="mask0_102_3597" style="mask-type:alpha" maskUnits="userSpaceOnUse" x="0" y="0" width="33" height="32">
<rect x="0.351562" width="32" height="32" fill="#D9D9D9"/>
</mask>
<g mask="url(#mask0_102_3597)">
<path d="M16.3446 28.588C16.0817 28.588 15.8206 28.5435 15.5613 28.4546C15.3021 28.3657 15.0726 28.225 14.8726 28.0323C13.7688 27.025 12.6688 25.9435 11.5726 24.788C10.4762 23.6324 9.49282 22.4342 8.62259 21.1933C7.75215 19.9526 7.0447 18.6897 6.50026 17.4046C5.95582 16.1193 5.68359 14.8507 5.68359 13.599C5.68359 10.2656 6.75582 7.61007 8.90026 5.63229C11.0447 3.65451 13.528 2.66562 16.3503 2.66562C19.1725 2.66562 21.6558 3.65451 23.8003 5.63229C25.9447 7.61007 27.0169 10.2656 27.0169 13.599C27.0169 14.8507 26.7447 16.1193 26.2003 17.4046C25.6558 18.6897 24.9484 19.9526 24.0779 21.1933C23.2077 22.4342 22.2244 23.6324 21.1279 24.788C20.0317 25.9435 18.9317 27.025 17.8279 28.0323C17.6279 28.225 17.3965 28.3657 17.1336 28.4546C16.8707 28.5435 16.6077 28.588 16.3446 28.588ZM16.3523 15.7766C17.0249 15.7766 17.6002 15.5371 18.0779 15.058C18.5557 14.5791 18.7946 14.0032 18.7946 13.3303C18.7946 12.6576 18.555 12.0824 18.0759 11.6046C17.597 11.1268 17.0211 10.888 16.3483 10.888C15.6756 10.888 15.1004 11.1275 14.6226 11.6066C14.1448 12.0855 13.9059 12.6614 13.9059 13.3343C13.9059 14.007 14.1455 14.5822 14.6246 15.06C15.1035 15.5377 15.6794 15.7766 16.3523 15.7766Z" fill="#3DCFB6"/>
</g>
</svg>
