<svg width="64" height="64" viewBox="0 0 64 64" fill="none" xmlns="http://www.w3.org/2000/svg">
<g clip-path="url(#clip0_102_2916)">
<path d="M11.3733 13.1467V50.9467C6.8 45.9067 4 39.28 4 32C4 24.72 6.8 18.0933 11.3733 13.1467Z" fill="white"/>
<path d="M14.3594 17.2533L30.506 49.64H14.3594V17.2533Z" fill="white"/>
<path d="M31.9995 46L16.1328 14.36H47.8661L31.9995 46Z" fill="white"/>
<path d="M31.9998 4C39.2798 4 45.9065 6.8 50.8532 11.3733H13.1465C18.0932 6.8 24.7198 4 31.9998 4Z" fill="white"/>
<path d="M49.6408 49.64H33.4941L49.6408 17.2533V49.64Z" fill="white"/>
<path d="M50.8532 52.6266C45.9065 57.2 39.2798 60 31.9998 60C24.7198 60 18.0932 57.2 13.1465 52.6266H50.8532Z" fill="white"/>
<path d="M52.627 50.8533V13.1467C57.2003 18.0933 60.0003 24.72 60.0003 32C60.0003 39.28 57.2003 45.9067 52.627 50.8533Z" fill="white"/>
<path d="M14.3594 17.2534L30.506 49.64H14.3594V17.2534Z" fill="white"/>
<path d="M31.9995 46L16.1328 14.36H47.8661L31.9995 46Z" fill="white"/>
<path d="M33.4922 49.64L49.6389 17.2534V49.64H33.4922Z" fill="white"/>
<path d="M16.1328 14.36H47.8661L31.9995 46L16.1328 14.36Z" fill="white"/>
</g>
<defs>
<clipPath id="clip0_102_2916">
<rect width="56" height="56" fill="white" transform="translate(4 4)"/>
</clipPath>
</defs>
</svg>
